HIERARCHY
ROOT Hips
{
	OFFSET -3.958830 18.904000 13.208200
	CHANNELS 6 Xposition Yposition Zposition Zrotation Yrotation Xrotation 
	JOINT LHipJoint
	{
		OFFSET 0.000000 0.000000 0.000000
		CHANNELS 3 Zrotation Yrotation Xrotation
		JOINT LeftUpLeg
		{
			OFFSET 1.800000 -1.400000 0.085000
			CHANNELS 3 Zrotation Yrotation Xrotation
			JOINT LeftLeg
			{
				OFFSET 2.215000 -6.000000 0.000000
				CHANNELS 3 Zrotation Yrotation Xrotation
				JOINT LeftFoot
				{
					OFFSET 2.500000 -6.900000 0.000000
					CHANNELS 3 Zrotation Yrotation Xrotation
					JOINT LeftToeBase
					{
						OFFSET 0.200000 -0.500000 1.950000
						CHANNELS 3 Zrotation Yrotation Xrotation
						End Site
						{
							OFFSET 0.000000 0.000000 0.000000
						}
					}
				}
			}
		}
	}
	JOINT RHipJoint
	{
		OFFSET 0.000000 0.000000 0.000000
		CHANNELS 3 Zrotation Yrotation Xrotation
		JOINT RightUpLeg
		{
			OFFSET -1.800000 -1.400000 0.085000
			CHANNELS 3 Zrotation Yrotation Xrotation
			JOINT RightLeg
			{
				OFFSET -2.215000 -6.000000 0.000000
				CHANNELS 3 Zrotation Yrotation Xrotation
				JOINT RightFoot
				{
					OFFSET -2.500000 -6.900000 0.000000
					CHANNELS 3 Zrotation Yrotation Xrotation
					JOINT RightToeBase
					{
						OFFSET -0.200000 -0.500000 1.950000
						CHANNELS 3 Zrotation Yrotation Xrotation
						End Site
						{
							OFFSET 0.000000 0.000000 0.000000
						}
					}
				}
			}
		}
	}
	JOINT LowerBack
	{
		OFFSET 0.000000 0.000000 0.000000
		CHANNELS 3 Zrotation Yrotation Xrotation
		JOINT Spine
		{
			OFFSET -0.087000 1.940000 -0.288900
			CHANNELS 3 Zrotation Yrotation Xrotation
			JOINT Spine1
			{
				OFFSET 0.000000 1.950000 0.060000
				CHANNELS 3 Zrotation Yrotation Xrotation
				JOINT Neck
				{
					OFFSET 0.000000 0.000000 0.000000
					CHANNELS 3 Zrotation Yrotation Xrotation
					JOINT Neck1
					{
						OFFSET 0.000000 1.600000 0.340000
						CHANNELS 3 Zrotation Yrotation Xrotation
						JOINT Head
						{
							OFFSET 0.000000 1.667000 -0.240000
							CHANNELS 3 Zrotation Yrotation Xrotation
							End Site
							{
								OFFSET 0.000000 0.000000 0.000000
							}
						}
					}
				}
				JOINT LeftShoulder
				{
					OFFSET 0.000000 0.000000 0.000000
					CHANNELS 3 Zrotation Yrotation Xrotation
					JOINT LeftArm
					{
						OFFSET 2.700000 1.550000 -0.730000
						CHANNELS 3 Zrotation Yrotation Xrotation
						JOINT LeftForeArm
						{
							OFFSET 5.450000 0.000000 0.000000
							CHANNELS 3 Zrotation Yrotation Xrotation
							JOINT LeftHand
							{
								OFFSET 3.450000 0.000000 0.000000
								CHANNELS 3 Zrotation Yrotation Xrotation
								JOINT LeftHandIndex1
								{
									OFFSET 0.750000 0.000000 0.000000
									CHANNELS 3 Zrotation Yrotation Xrotation
									End Site
									{
										OFFSET 0.000000 0.000000 0.000000
									}
								}
							}
						}
					}
				}
				JOINT RightShoulder
				{
					OFFSET 0.000000 0.000000 0.000000
					CHANNELS 3 Zrotation Yrotation Xrotation
					JOINT RightArm
					{
						OFFSET -2.700000 1.550000 -0.730000
						CHANNELS 3 Zrotation Yrotation Xrotation
						JOINT RightForeArm
						{
							OFFSET -5.450000 0.000000 0.000000
							CHANNELS 3 Zrotation Yrotation Xrotation
							JOINT RightHand
							{
								OFFSET -3.450000 0.000000 0.000000
								CHANNELS 3 Zrotation Yrotation Xrotation
								JOINT RightHandIndex1
								{
									OFFSET -0.750000 0.000000 0.000000
									CHANNELS 3 Zrotation Yrotation Xrotation
									End Site
									{
										OFFSET 0.000000 0.000000 0.000000
									}
								}
							}
						}
					}
				}
			}
		}
	}
}
MOTION
Frames: 10
Frame Time: 0.016667
-0.818960 13.867970 -1.731560 -47.607180 5.669187 -2.641762 -15.696771 9.268289 5.938044 -4.424326 -20.209685 -51.251207 8.664143 11.265410 83.514190 1.817419 14.227984 -0.223437 0.094640 0.028500 0.164160 18.579590 -6.396703 5.125557 -26.497842 9.323507 -44.410490 37.544334 -41.048743 65.458334 -2.965646 -14.797404 -0.372152 -0.006710 0.170960 0.073060 -3.240035 -2.817277 -10.476163 2.665445 -0.050907 55.066030 -6.829132 3.509725 17.214387 2.750899 0.309099 -18.348967 -5.346607 9.336780 51.373610 7.890470 7.604880 -6.362830 -9.278401 -25.978165 7.644974 -11.843932 -15.745362 2.026890 6.504004 2.352927 -0.535654 -4.041883 2.472284 0.545620 -0.029800 0.153120 -0.031920 3.077558 25.522658 14.915031 15.990478 0.562244 -1.628897 -7.857535 1.268525 0.219152 2.717577 -0.850160 -0.233830 0.244590 0.124490 -0.100940 
-0.784600 13.802210 -1.620630 -48.792288 5.035286 -5.123610 -15.625844 9.258044 5.657927 0.068444 -18.476936 -50.520015 2.197604 17.372859 83.298038 1.992475 15.082103 -0.451339 0.145180 0.080500 0.215090 18.621625 -6.354288 5.371251 -27.214669 9.785069 -45.633662 40.545589 -44.603841 66.245304 -3.161378 -15.197113 -0.435711 0.020880 0.131850 0.063910 -3.399067 -2.656887 -10.477546 4.320290 -1.456689 55.145051 -8.124848 3.003234 17.609002 3.255591 0.373973 -18.075811 -5.227807 9.298257 51.933081 7.417650 7.789460 -7.279580 -9.231370 -25.101196 7.664503 -13.543372 -14.986988 2.113853 6.296347 1.537353 -0.520442 -3.969871 2.493401 0.566550 -0.056770 0.183010 -0.019580 2.030487 24.226032 14.609700 15.567770 0.066513 -1.786844 -8.822619 0.855643 0.224102 2.734932 -0.864676 -0.227120 0.251110 0.085130 -0.112840 
-0.733590 13.712060 -1.513270 -50.930986 5.061294 -7.041178 -15.521719 9.034357 5.553650 1.964383 -17.958887 -50.253643 0.096812 19.336832 83.476171 2.097425 15.418707 -0.489416 0.169910 0.110890 0.262810 18.728025 -6.317180 5.600079 -27.988070 9.278195 -46.974555 46.957293 -49.832449 64.537776 -3.309198 -15.239419 -0.349680 0.036010 0.114960 -0.014610 -3.694108 -2.272748 -10.539828 8.150781 -4.661492 54.554049 -10.383679 1.814945 17.331116 4.103498 0.368297 -18.089166 -5.617662 9.144319 53.614089 6.949380 7.489850 -7.122020 -9.280222 -24.459368 7.873380 -15.628192 -14.066050 2.274928 5.549355 1.008981 -0.422091 -3.870202 2.430062 0.586820 -0.087250 0.195970 0.011800 0.561559 22.888861 14.271071 15.430435 -0.594495 -2.284872 -10.730687 1.122220 0.178980 2.748047 -0.853144 -0.260850 0.323590 0.024830 -0.121670 
-0.676450 13.623080 -1.398070 -52.087304 4.645765 -8.966966 -15.408253 9.038270 5.289698 2.730033 -16.754107 -47.398785 -3.674213 21.295335 79.735794 2.080851 15.287785 -0.431340 0.170610 0.117360 0.249620 18.808689 -6.451205 5.761752 -28.836867 8.813699 -47.648590 53.445434 -52.767817 61.027430 -3.290420 -14.864334 -0.220042 0.049280 0.138680 -0.051070 -3.972925 -1.911135 -10.470415 11.043541 -6.844094 53.540359 -12.555606 0.924663 17.828437 4.702984 0.201824 -18.274193 -6.262381 9.200340 54.261697 7.605200 6.558900 -5.997350 -9.788805 -24.268015 8.003996 -16.469638 -13.076808 2.329018 4.471895 0.965506 -0.373267 -3.830973 2.405132 0.579080 -0.088860 0.181140 0.039140 -0.008259 22.200138 14.270142 14.264081 -1.693076 -2.765519 -12.872394 0.596041 0.152110 2.780258 -0.883843 -0.283240 0.361680 0.005820 -0.106920 
-0.636880 13.543730 -1.291670 -52.472931 3.794921 -10.744532 -15.361048 8.957104 5.210591 4.318190 -15.907592 -46.052059 -8.686950 25.356610 77.974879 2.264810 15.858281 -0.561216 0.185250 0.132580 0.247690 18.843947 -6.423046 5.887072 -29.599841 8.504059 -49.166089 59.717248 -55.516086 57.886050 -3.269720 -14.502818 -0.103777 0.060030 0.106870 -0.097780 -4.096155 -1.743790 -10.504171 12.167929 -7.778523 53.290988 -13.705042 0.553532 17.454885 5.067108 0.127606 -18.613581 -6.794254 8.883896 54.757162 8.538690 5.336330 -5.270230 -10.193912 -24.040494 8.125897 -17.725300 -12.054758 2.287545 3.974817 0.988855 -0.310886 -3.751936 2.428381 0.590200 -0.125020 0.173910 0.048070 -0.269449 21.965154 14.482914 12.450612 -3.451889 -3.486143 -15.042998 0.757829 0.067188 2.812488 -0.931622 -0.293720 0.354870 -0.022510 -0.111220 
-0.595550 13.441330 -1.182030 -52.077482 3.607428 -12.409437 -15.334281 8.762334 5.275385 4.480131 -16.243849 -45.589961 -13.516201 29.540096 77.353466 2.504578 16.736012 -0.766164 0.185790 0.097780 0.240570 18.886014 -6.352436 5.938666 -30.992072 7.265696 -50.788004 67.385810 -58.126911 53.281810 -3.194064 -13.907064 0.025963 0.046470 0.115170 -0.053930 -4.191874 -1.609515 -10.564018 13.058154 -8.738086 52.866781 -14.815162 0.021029 17.110977 5.402323 -0.043679 -18.387166 -7.349612 9.279859 54.873882 9.474930 4.796080 -5.507640 -10.125121 -23.202691 7.898811 -19.627280 -12.152948 2.628068 3.533101 1.081963 -0.367059 -3.758057 2.477758 0.621580 -0.129720 0.173840 0.036420 -0.951557 20.844574 14.237431 10.296511 -4.605316 -4.123626 -17.213908 0.903099 -0.000885 2.812723 -0.973461 -0.290760 0.332800 0.014900 -0.120600 
-0.525360 13.351910 -1.079270 -50.307516 2.989104 -14.865291 -15.342868 8.731397 5.299625 2.802795 -16.897328 -44.951967 -14.236453 31.660208 79.377020 2.668533 17.438521 -0.926364 0.188580 0.086890 0.262170 18.884462 -6.367417 5.920037 -33.123685 5.823330 -50.983689 75.532204 -58.342103 47.130607 -3.024733 -13.102214 0.213934 0.067540 0.086140 -0.099700 -4.183557 -1.581674 -10.566893 12.004648 -8.674199 54.078226 -15.509623 -0.202090 17.163107 5.775567 -0.497981 -18.177596 -8.457072 9.074672 53.537609 9.237250 4.066280 -6.873710 -9.856433 -22.540827 7.567408 -20.829594 -12.380848 2.893884 2.739634 1.239245 -0.389566 -3.724088 2.454420 0.653140 -0.162360 0.157030 0.007680 -1.908121 20.444152 14.119014 8.473163 -6.153878 -5.216067 -20.333444 1.071833 -0.175937 2.835924 -1.027847 -0.332010 0.354940 0.026740 -0.153220 
-0.453220 13.251330 -0.975790 -48.548458 2.912899 -17.392223 -15.336094 8.748436 5.329702 1.026371 -17.535230 -43.630043 -16.466952 33.890295 79.363685 2.850742 17.898904 -1.019400 0.214420 0.113620 0.281170 18.876432 -6.496966 5.787809 -34.452111 4.254829 -50.154880 84.491672 -57.932937 40.336041 -2.898244 -12.368278 0.381197 0.076610 0.053430 -0.073760 -4.181281 -1.504587 -10.531074 11.215635 -8.846913 55.349082 -16.255232 -0.606201 17.234618 6.160738 -0.560979 -17.788074 -8.435124 8.794441 52.376553 8.926700 3.881650 -8.107120 -10.347955 -21.882276 7.189246 -21.099922 -12.571118 2.963884 2.096323 0.963512 -0.425657 -3.704022 2.497084 0.650230 -0.178820 0.176650 -0.001780 -2.187391 19.583285 13.856294 5.266343 -7.953847 -5.910977 -22.917870 1.638589 -0.387041 2.861967 -1.110476 -0.300480 0.322970 0.022860 -0.152660 
-0.389670 13.136220 -0.887960 -46.064160 3.648918 -19.008151 -15.394587 8.802864 5.418622 -2.471439 -19.248702 -42.893524 -19.106929 33.278599 75.223176 2.785163 17.312174 -0.848943 0.240170 0.158630 0.268070 18.840448 -6.537140 5.627442 -36.522431 1.352726 -49.244623 97.207511 -55.212822 30.350551 -2.764353 -11.621766 0.596310 0.104160 0.071390 -0.069680 -4.033630 -1.736765 -10.514566 9.311360 -8.401928 55.675858 -16.137581 -1.271196 17.246068 6.513121 -0.982115 -17.000364 -8.892227 8.725571 50.396397 8.503180 3.499960 -8.188080 -10.767319 -20.891464 6.811522 -22.442844 -13.031460 3.167348 2.128455 0.925795 -0.404888 -3.694932 2.553818 0.607420 -0.163250 0.162460 0.028270 -2.462881 18.755098 13.129306 1.397610 -8.912261 -6.837593 -27.383958 2.098914 -0.850972 2.882790 -1.276722 -0.282030 0.322190 0.001340 -0.125240 
-0.325370 13.041640 -0.818750 -43.561293 3.849807 -20.178257 -15.446972 8.660642 5.596618 -4.323813 -21.130848 -44.638267 -21.006767 32.075952 71.301879 2.645249 16.614368 -0.683333 0.249380 0.170020 0.262900 18.842395 -6.438823 5.588124 -39.532298 -1.133270 -47.390912 108.367314 -50.443459 21.398892 -2.720487 -11.182525 0.719266 0.105630 0.071140 -0.049880 -3.956290 -1.818747 -10.592573 7.443859 -7.964346 56.231647 -16.295719 -1.763248 16.660459 6.679566 -1.377555 -16.510024 -9.357945 8.803267 49.347149 8.357290 3.328600 -8.774060 -11.015772 -20.096690 6.735014 -23.482032 -12.548634 3.080347 1.302958 -0.076659 -0.445610 -3.660860 2.596397 0.600650 -0.166890 0.171260 0.036060 -2.531430 18.359632 12.436811 -3.279539 -9.292049 -7.480374 -30.869895 1.845022 -1.081960 2.925360 -1.369045 -0.263970 0.311970 0.001120 -0.112130 
